Coordinates
version=1
nRows=12
nColumns=24
inDegrees=yes

Units are S.I. units (second, meters, Newtons, ...)
Angles are in degrees.

endheader
time	pelvis_tilt	pelvis_list	pelvis_rotation	pelvis_tx	pelvis_ty	pelvis_tz	hip_flexion_r	hip_adduction_r	hip_rotation_r	knee_angle_r	ankle_angle_r	subtalar_angle_r	mtp_angle_r	hip_flexion_l	hip_adduction_l	hip_rotation_l	knee_angle_l	ankle_angle_l	subtalar_angle_l	mtp_angle_l	lumbar_extension	lumbar_bending	lumbar_rotation
      7.73000000	      5.26620154	      1.95408034	     11.40356606	      0.14991974	      0.89449675	      0.27125158	     -2.76617707	      3.84683736	      0.22359358	     -9.96465093	     13.97687248	     -6.24706459	      0.00000000	     15.24839028	      3.20503793	     -0.27365652	    -68.53689541	     -3.17572117	     -4.63788487	      0.00000000	    -21.81983593	     -0.02584613	    -11.66009573
      7.74000000	      5.11784613	      2.24580561	     11.29825392	      0.15941117	      0.89479069	      0.27102032	     -3.61205130	      3.61740513	      0.32747988	     -9.44357851	     14.29009764	     -6.20331955	      0.00000000	     16.64188283	      3.69962031	     -0.70960588	    -67.68103933	     -0.95488354	     -4.47717201	      0.00000000	    -21.95609208	     -0.37397806	    -11.52553065
      7.75000000	      4.97523104	      2.50184697	     11.17717729	      0.16887975	      0.89494481	      0.27073169	     -4.44212554	      3.41307883	      0.42759885	     -8.94680423	     14.60329350	     -6.12524708	      0.00000000	     17.93318051	      4.16123009	     -1.13076070	    -66.49755809	      1.01664991	     -4.36931183	      0.00000000	    -22.08682011	     -0.67734036	    -11.36610412
      7.76000000	      4.87935021	      2.70609204	     10.98517829	      0.17836119	      0.89500379	      0.27048593	     -5.29838716	      3.25626717	      0.57103516	     -8.46767234	     14.91238237	     -5.98265932	      0.00000000	     19.06564706	      4.53955387	     -1.57892597	    -64.98531298	      2.76473595	     -4.28383297	      0.00000000	    -22.25056872	     -0.92633803	    -11.10720260
      7.77000000	      4.71461770	      2.89620451	     10.87545189	      0.18789334	      0.89485037	      0.27001707	     -6.09666438	      3.09331932	      0.65410704	     -7.97319071	     15.20256155	     -5.86205264	      0.00000000	     20.15100605	      4.97269492	     -1.88936747	    -63.14141600	      4.22678120	     -4.27209649	      0.00000000	    -22.30138830	     -1.15446387	    -10.95410307
      7.78000000	      4.68028234	      3.03541392	     10.58423342	      0.19744579	      0.89471008	      0.26968724	     -6.98894602	      2.97551998	      0.83945420	     -7.52704198	     15.52733233	     -5.60778237	      0.00000000	     20.95919796	      5.26804402	     -2.31388915	    -60.96220296	      5.56137515	     -4.16723786	      0.00000000	    -22.49469705	     -1.32290236	    -10.59150754
      7.79000000	      4.50923435	      3.12835296	     10.44337476	      0.20708077	      0.89424250	      0.26909119	     -7.75638861	      2.88940315	      0.91484341	     -7.05137826	     15.79567866	     -5.45928066	      0.00000000	     21.79714909	      5.62085581	     -2.50175523	    -58.48928520	      6.68285591	     -3.99999227	      0.00000000	    -22.47149902	     -1.43979567	    -10.37100647
      7.80000000	      4.52441082	      3.21269479	     10.09268676	      0.21677953	      0.89391110	      0.26869801	     -8.69754333	      2.80473375	      1.12662740	     -6.60780173	     16.11013754	     -5.11688304	      0.00000000	     22.26549010	      5.85449015	     -2.82063074	    -55.66763571	      7.69432975	     -3.70376003	      0.00000000	    -22.67020913	     -1.55860956	     -9.92866510
      7.81000000	      4.41758123	      3.26011341	      9.84732014	      0.22659881	      0.89327753	      0.26812227	     -9.51868708	      2.74611679	      1.25699713	     -6.15793290	     16.39260336	     -4.88202021	      0.00000000	     22.72548059	      6.12587902	     -2.94576675	    -52.55512880	      8.53932596	     -3.28307526	      0.00000000	    -22.66795886	     -1.63802851	     -9.65164344
      7.82000000	      4.32180225	      3.29358876	      9.56996368	      0.23648780	      0.89257893	      0.26750665	    -10.34357359	      2.68717902	      1.41455419	     -5.72581034	     16.64430354	     -4.62308334	      0.00000000	     23.00844093	      6.39899459	     -2.94901802	    -49.12604227	      9.17746216	     -2.76948296	      0.00000000	    -22.66257899	     -1.70576545	     -9.29221247
      7.83000000	      4.28865583	      3.34201158	      9.27098138	      0.24639233	      0.89189427	      0.26684983	    -11.21784787	      2.60971678	      1.59549337	     -5.33762523	     16.87473828	     -4.36444509	      0.00000000	     23.04597950	      6.70031145	     -2.79867541	    -45.37390589	      9.57223668	     -2.24564090	      0.00000000	    -22.75616495	     -1.78119464	     -8.86914029
      7.84000000	      4.20498518	      3.35617977	      8.99180915	      0.25644861	      0.89102707	      0.26614068	    -12.03243352	      2.56074047	      1.77385056	     -4.96833510	     17.07257728	     -4.17267809	      0.00000000	     22.97438143	      6.99258682	     -2.45839894	    -41.35398940	      9.72110047	     -1.75524051	      0.00000000	    -22.73666679	     -1.82686359	     -8.52891326
